<svg width="1600" height="900" viewBox="0 0 1600 900" xmlns="http://www.w3.org/2000/svg">
  <defs>
    <linearGradient id="g1688112150-bg" x1="0" y1="0" x2="1600" y2="900" gradientUnits="userSpaceOnUse">
      <stop offset="0%" stop-color="#0f1115" />
      <stop offset="100%" stop-color="#181b22" />
    </linearGradient>
    <filter id="g1688112150-blur" x="-50%" y="-50%" width="200%" height="200%">
      <feGaussianBlur stdDeviation="40.5" />
    </filter>
    <filter id="g1688112150-noise">
      <feTurbulence type="fractalNoise" baseFrequency="0.9" numOctaves="2" stitchTiles="stitch" result="noise" />
      <feColorMatrix in="noise" type="matrix" values="0 0 0 0 1  0 0 0 0 1  0 0 0 0 1  0 0 0 0.02 0" />
    </filter>
  </defs>
  <rect width="1600" height="900" fill="url(#g1688112150-bg)" />
  <path d="M 775.6333170498494,366.5077160493827 Q 775.6333170498494,366.5077160493827 758.0958775550163,440.18576909867863 Q 740.5584380601831,513.8638221479746 666.8803850108872,547.4062753929745 Q 593.2023319615912,580.9487286379743 534.160474938423,532.7700793668466 Q 475.1186179152549,484.59143009571903 437.72242238653024,425.54957307255086 Q 400.3262268578056,366.5077160493827 433.0328075462289,302.77624418591324 Q 465.7393882346522,239.04477232244375 529.4708600981216,208.0465945219424 Q 593.2023319615912,177.04841672144107 662.0460507121427,202.93434763486033 Q 730.8897694626943,228.82027854827956 753.2615432562718,297.66399729883113 Z" fill="#2563eb" opacity="0.4539043209876543" filter="url(#g1688112150-blur)" />
  <path d="M 906.2276655398218,728.4012345679013 Q 906.2276655398218,728.4012345679013 859.6808523763057,857.1777877819777 Q 813.1340392127894,985.9543409960542 684.357485998713,1055.7194283414865 Q 555.5809327846365,1125.484515686919 444.9372528339431,1037.5865550781036 Q 334.2935728832497,949.6885944692881 261.8808459181163,839.0449145185946 Q 189.46811895298288,728.4012345679013 249.6559317803107,605.5326404794023 Q 309.84374460763854,482.66404639090337 432.7123386961375,465.6330963177209 Q 555.5809327846365,448.60214624453846 675.008002544803,469.0746206460533 Q 794.4350723049695,489.5470950475682 850.3313689223957,608.9741648077347 Z" fill="#6366f1" opacity="0.4440997942386831" filter="url(#g1688112150-blur)" />
  <path d="M 830.4835457132265,436.9614197530864 Q 830.4835457132265,436.9614197530864 788.2855841920716,509.5439828032225 Q 746.0876226709169,582.1265458533586 673.5050596207807,604.2477043681516 Q 600.9224965706446,626.3688628829447 503.38690002993576,629.2007378587244 Q 405.85130348922684,632.0326128345042 410.538351646456,534.4970162937952 Q 415.2253998036852,436.9614197530864 422.8602742817982,351.74774584771967 Q 430.4951487599112,266.53407194235297 515.7088226652779,208.8928088363234 Q 600.9224965706446,151.25154573029386 680.4935752389545,214.53540407338028 Q 760.0646539072643,277.8192624164667 795.2740998102454,357.39034108477654 Z" fill="#06b6d4" opacity="0.5379989711934157" filter="url(#g1688112150-blur)" />
  <path d="M 738.5714822614217,542.1882716049382 Q 738.5714822614217,542.1882716049382 647.7368456254087,642.6925311064949 Q 556.9022089893958,743.1967906080515 456.39794948783924,793.3646224952408 Q 355.8936899862826,843.5324543824302 240.45150268993913,808.3025502900277 Q 125.00931539359567,773.0726461976252 71.49550052932625,657.6304589012817 Q 17.98168566505683,542.1882716049382 91.1646634599732,446.41524723924175 Q 164.34764125488957,350.6422228735453 260.12066562058607,281.6529452606943 Q 355.89368998628254,212.66366764784328 445.61247272925834,287.7071868834149 Q 535.3312554722341,362.7507061189866 636.9513688668279,452.4694888619624 Z" fill="#2563eb" opacity="0.4689351851851852" filter="url(#g1688112150-blur)" />
  <line x1="0" y1="150" x2="1600" y2="150" stroke="white" stroke-opacity="0.06" stroke-width="1" />
  <line x1="0" y1="300" x2="1600" y2="300" stroke="white" stroke-opacity="0.06" stroke-width="1" />
  <line x1="0" y1="450" x2="1600" y2="450" stroke="white" stroke-opacity="0.06" stroke-width="1" />
  <line x1="0" y1="600" x2="1600" y2="600" stroke="white" stroke-opacity="0.06" stroke-width="1" />
  <line x1="0" y1="750" x2="1600" y2="750" stroke="white" stroke-opacity="0.06" stroke-width="1" />
  <rect width="1600" height="900" filter="url(#g1688112150-noise)" />
  
    <g transform="translate(1516, 816)">
      <rect width="56" height="56" rx="14" fill="white" fill-opacity="0.14" />
      <text x="28" y="36" font-family="Arial, sans-serif" font-size="22" font-weight="700" fill="white" text-anchor="middle">AL</text>
    </g>
</svg>