<svg width="800" height="600" viewBox="0 0 800 600" xmlns="http://www.w3.org/2000/svg">
  <defs>
    <linearGradient id="g787553051-bg" x1="0" y1="0" x2="800" y2="600" gradientUnits="userSpaceOnUse">
      <stop offset="0%" stop-color="#0f1115" />
      <stop offset="100%" stop-color="#181b22" />
    </linearGradient>
    <filter id="g787553051-blur" x="-50%" y="-50%" width="200%" height="200%">
      <feGaussianBlur stdDeviation="27" />
    </filter>
    <filter id="g787553051-noise">
      <feTurbulence type="fractalNoise" baseFrequency="0.9" numOctaves="2" stitchTiles="stitch" result="noise" />
      <feColorMatrix in="noise" type="matrix" values="0 0 0 0 1  0 0 0 0 1  0 0 0 0 1  0 0 0 0.02 0" />
    </filter>
  </defs>
  <rect width="800" height="600" fill="url(#g787553051-bg)" />
  <path d="M 341.6510929680752,210.16846707818928 Q 341.6510929680752,210.16846707818928 304.29774728212226,260.9698859832698 Q 266.94440159616937,311.7713048883504 216.14298269108878,352.4407686521744 Q 165.3415637860082,393.11023241599844 111.72990939126426,355.2510041418378 Q 58.11825499652031,317.3917758676772 27.337219672194422,263.7801214729333 Q -3.4438156521314625,210.1684670781893 33.4174598346116,162.63705284586254 Q 70.27873532135466,115.10563861353576 117.81014955368141,67.39350430394711 Q 165.34156378600818,19.681369994358477 229.48431289570462,50.782169426577425 Q 293.62706200540106,81.88296885879637 317.63907748673813,146.0257179684928 Z" fill="#2563eb" opacity="0.377653463648834" filter="url(#g787553051-blur)" />
  <path d="M 412.48783436875516,499.3937757201646 Q 412.48783436875516,499.3937757201646 380.4564124988618,547.6247895531674 Q 348.42499062896843,595.8558033861701 300.1939767959657,613.3289250674313 Q 251.96296296296293,630.8020467486924 192.16657241074222,624.8943017866493 Q 132.3701818585215,618.986556824606 114.51019525756048,559.1901662723853 Q 96.65020865659946,499.3937757201646 109.3603205405695,434.44751045095296 Q 122.07043242453955,369.5012451817413 187.0166976937512,328.9502697622082 Q 251.9629629629629,288.39929434267515 299.11977139973914,346.7397265946437 Q 346.27657983651534,405.0801588466122 379.3822071026352,452.2369672833884 Z" fill="#6366f1" opacity="0.4647625171467764" filter="url(#g787553051-blur)" />
  <path d="M 439.4108872438038,399.730195473251 Q 439.4108872438038,399.730195473251 413.40555101009386,465.61960327296555 Q 387.4002147763839,531.5090110726801 321.5108069766693,531.3614642422012 Q 255.6213991769547,531.2139174117223 186.4202286728421,534.6732269465992 Q 117.2190581687295,538.1325364814762 100.52413797799369,468.9313659773636 Q 83.82921778725787,399.730195473251 110.77904941337212,340.78393640451685 Q 137.72888103948637,281.8376773357827 196.67514010822052,275.5829548276432 Q 255.62139917695467,269.32823231950374 316.75133863649495,273.3992744368371 Q 377.8812780960352,277.47031655417044 408.6460826699195,338.6002560137107 Z" fill="#06b6d4" opacity="0.5444641632373114" filter="url(#g787553051-blur)" />
  <line x1="0" y1="100" x2="800" y2="100" stroke="white" stroke-opacity="0.06" stroke-width="1" />
  <line x1="0" y1="200" x2="800" y2="200" stroke="white" stroke-opacity="0.06" stroke-width="1" />
  <line x1="0" y1="300" x2="800" y2="300" stroke="white" stroke-opacity="0.06" stroke-width="1" />
  <line x1="0" y1="400" x2="800" y2="400" stroke="white" stroke-opacity="0.06" stroke-width="1" />
  <line x1="0" y1="500" x2="800" y2="500" stroke="white" stroke-opacity="0.06" stroke-width="1" />
  <rect width="800" height="600" filter="url(#g787553051-noise)" />
  
    <g transform="translate(716, 516)">
      <rect width="56" height="56" rx="14" fill="white" fill-opacity="0.14" />
      <text x="28" y="36" font-family="Arial, sans-serif" font-size="22" font-weight="700" fill="white" text-anchor="middle">AL</text>
    </g>
</svg>