<svg width="800" height="600" viewBox="0 0 800 600" xmlns="http://www.w3.org/2000/svg">
  <defs>
    <linearGradient id="g2534304666-bg" x1="0" y1="0" x2="800" y2="600" gradientUnits="userSpaceOnUse">
      <stop offset="0%" stop-color="#0f1115" />
      <stop offset="100%" stop-color="#181b22" />
    </linearGradient>
    <filter id="g2534304666-blur" x="-50%" y="-50%" width="200%" height="200%">
      <feGaussianBlur stdDeviation="27" />
    </filter>
    <filter id="g2534304666-noise">
      <feTurbulence type="fractalNoise" baseFrequency="0.9" numOctaves="2" stitchTiles="stitch" result="noise" />
      <feColorMatrix in="noise" type="matrix" values="0 0 0 0 1  0 0 0 0 1  0 0 0 0 1  0 0 0 0.02 0" />
    </filter>
  </defs>
  <rect width="800" height="600" fill="url(#g2534304666-bg)" />
  <path d="M 599.3039855207645,432.798353909465 Q 599.3039855207645,432.798353909465 541.6121974919138,495.01558881932294 Q 483.9204094630629,557.2328237291808 421.703174553205,593.4025013636187 Q 359.485939643347,629.5721789980566 283.4429212912276,607.2282848058802 Q 207.39990293910822,584.8843906137038 169.06953583023864,508.8413722615844 Q 130.73916872136905,432.798353909465 159.19855474598836,346.8843544730953 Q 187.65794077060767,260.97035503672566 273.57194020697733,267.06615760217034 Q 359.48593964334697,273.161960167615 441.30212284438585,271.1639738375011 Q 523.1183060454248,269.1659875073872 561.2111457830947,350.9821707084261 Z" fill="#2563eb" opacity="0.4238940329218107" filter="url(#g2534304666-blur)" />
  <path d="M 658.514712271535,409.61625514403295 Q 658.514712271535,409.61625514403295 614.1203055343295,451.54899192256755 Q 569.725898797124,493.48172870110216 527.7931620185894,541.0024429494689 Q 485.86042524005484,588.5231571978356 424.2561714671492,560.6739599438399 Q 362.65191769424365,532.8247626898442 364.1897457384906,471.22050891693857 Q 365.72757378273764,409.61625514403295 366.83326632067315,350.65552195330986 Q 367.93895885860866,291.69478876258677 426.89969204933175,287.5423807154714 Q 485.86042524005484,283.389972668356 533.3698109110655,298.9937282351838 Q 580.8791965820761,314.59748380201165 619.6969544268056,362.1068694730223 Z" fill="#10b981" opacity="0.3770524691358024" filter="url(#g2534304666-blur)" />
  <path d="M 506.70478318986136,90.87860082304528 Q 506.70478318986136,90.87860082304528 478.4963652712939,175.8310450069531 Q 450.2879473527264,260.7834891908609 365.3355031688186,290.9869828919617 Q 280.3830589849108,321.1904765930625 202.02699903045493,284.3905986625098 Q 123.67093907599909,247.59072073195702 72.48805185112612,169.23466077750118 Q 21.305164626253145,90.8786008230453 73.56627913730327,13.600768154766612 Q 125.8273936483534,-63.67706451351208 203.10522631663207,-96.21344186572483 Q 280.38305898491075,-128.74981921793758 372.2881879747943,-110.84073818732973 Q 464.1933169646779,-92.93165715672188 485.4490500772696,-1.026528166838304 Z" fill="#8b5cf6" opacity="0.5005812757201646" filter="url(#g2534304666-blur)" />
  <line x1="0" y1="100" x2="800" y2="100" stroke="white" stroke-opacity="0.06" stroke-width="1" />
  <line x1="0" y1="200" x2="800" y2="200" stroke="white" stroke-opacity="0.06" stroke-width="1" />
  <line x1="0" y1="300" x2="800" y2="300" stroke="white" stroke-opacity="0.06" stroke-width="1" />
  <line x1="0" y1="400" x2="800" y2="400" stroke="white" stroke-opacity="0.06" stroke-width="1" />
  <line x1="0" y1="500" x2="800" y2="500" stroke="white" stroke-opacity="0.06" stroke-width="1" />
  <rect width="800" height="600" filter="url(#g2534304666-noise)" />
  
    <g transform="translate(716, 516)">
      <rect width="56" height="56" rx="14" fill="white" fill-opacity="0.14" />
      <text x="28" y="36" font-family="Arial, sans-serif" font-size="22" font-weight="700" fill="white" text-anchor="middle">CR</text>
    </g>
</svg>