<svg width="1600" height="900" viewBox="0 0 1600 900" xmlns="http://www.w3.org/2000/svg">
  <defs>
    <linearGradient id="g358985655-bg" x1="0" y1="0" x2="1600" y2="900" gradientUnits="userSpaceOnUse">
      <stop offset="0%" stop-color="#0f1115" />
      <stop offset="100%" stop-color="#181b22" />
    </linearGradient>
    <filter id="g358985655-blur" x="-50%" y="-50%" width="200%" height="200%">
      <feGaussianBlur stdDeviation="40.5" />
    </filter>
    <filter id="g358985655-noise">
      <feTurbulence type="fractalNoise" baseFrequency="0.9" numOctaves="2" stitchTiles="stitch" result="noise" />
      <feColorMatrix in="noise" type="matrix" values="0 0 0 0 1  0 0 0 0 1  0 0 0 0 1  0 0 0 0.02 0" />
    </filter>
  </defs>
  <rect width="1600" height="900" fill="url(#g358985655-bg)" />
  <path d="M 1544.7692920782686,188.55054012345678 Q 1544.7692920782686,188.55054012345678 1430.2244875871882,284.9486807112912 Q 1315.6796830961077,381.3468212991256 1219.2815425082733,453.49093413409736 Q 1122.883401920439,525.6350469690691 971.7784334015683,508.1977620651336 Q 820.6734648826978,490.7604771611981 778.0167572753983,339.65550864232745 Q 735.3600496680988,188.55054012345684 822.1185429453865,81.54735727457448 Q 908.8770362226742,-25.45582557430788 1015.8802190715566,-72.81112900542443 Q 1122.883401920439,-120.16643243654099 1244.820607982721,-87.74515221882432 Q 1366.7578140450032,-55.323872001107645 1455.7635530616358,66.61333406117457 Z" fill="#2563eb" opacity="0.47364454732510286" filter="url(#g358985655-blur)" />
  <path d="M 927.7758198997071,614.6107253086419 Q 927.7758198997071,614.6107253086419 909.8649078300243,772.0307958911446 Q 891.9539957603415,929.4508664736472 734.5339251778388,969.3777831042933 Q 577.1138545953361,1009.3046997349393 476.9017702151076,912.169796902019 Q 376.6896858348791,815.0348940690989 300.7095758137286,714.8228096888704 Q 224.72946579257803,614.6107253086419 293.05738908839544,506.7464542030803 Q 361.3853123842128,398.8821830975187 469.2495834897744,312.12794955181874 Q 577.113854595336,225.3737160061188 717.4121086735452,279.6939665791711 Q 857.7103627517545,334.0142171522234 892.7430913257308,474.31247123043266 Z" fill="#10b981" opacity="0.5286548353909465" filter="url(#g358985655-blur)" />
  <path d="M 1077.2714257008745,177.33757716049382 Q 1077.2714257008745,177.33757716049382 1036.485522685736,244.70041854586125 Q 995.6996196705976,312.0632599312287 928.3367782852301,378.51278793565035 Q 860.9739368998628,444.962315940072 788.7269142936232,383.3969691565225 Q 716.4798916873837,321.831622372973 694.3780096779253,249.58459976673345 Q 672.2761276684671,177.33757716049385 676.6991831960174,87.41172807234629 Q 681.1222387235676,-2.5141210158012655 771.0480878117153,-46.09276398119454 Q 860.9739368998628,-89.67140694658781 944.9954509957442,-40.188428988928536 Q 1029.0169650916257,9.294548968730737 1053.14419539625,93.31606306461228 Z" fill="#8b5cf6" opacity="0.42070216049382714" filter="url(#g358985655-blur)" />
  <path d="M 715.1801063953507,556.7310956790124 Q 715.1801063953507,556.7310956790124 678.6256536220485,637.2015383530427 Q 642.0712008487465,717.6719810270729 561.6007581747161,757.144246433342 Q 481.13031550068587,796.616511839611 406.3101318891364,751.4939873708611 Q 331.489948277587,706.3714629021113 282.6678955932609,631.5512792905618 Q 233.84584290893474,556.7310956790124 275.7052588607426,474.9482753349447 Q 317.5646748125505,393.16545499087704 399.34749515661815,361.3220660456389 Q 481.1303155006858,329.4786771004008 579.4736335208765,344.76156836951577 Q 677.8169515410674,360.0444596386307 696.498528968209,458.3877776588215 Z" fill="#2563eb" opacity="0.4831198559670782" filter="url(#g358985655-blur)" />
  <line x1="0" y1="150" x2="1600" y2="150" stroke="white" stroke-opacity="0.06" stroke-width="1" />
  <line x1="0" y1="300" x2="1600" y2="300" stroke="white" stroke-opacity="0.06" stroke-width="1" />
  <line x1="0" y1="450" x2="1600" y2="450" stroke="white" stroke-opacity="0.06" stroke-width="1" />
  <line x1="0" y1="600" x2="1600" y2="600" stroke="white" stroke-opacity="0.06" stroke-width="1" />
  <line x1="0" y1="750" x2="1600" y2="750" stroke="white" stroke-opacity="0.06" stroke-width="1" />
  <rect width="1600" height="900" filter="url(#g358985655-noise)" />
  
    <g transform="translate(1516, 816)">
      <rect width="56" height="56" rx="14" fill="white" fill-opacity="0.14" />
      <text x="28" y="36" font-family="Arial, sans-serif" font-size="22" font-weight="700" fill="white" text-anchor="middle">CR</text>
    </g>
</svg>