<svg width="1600" height="900" viewBox="0 0 1600 900" xmlns="http://www.w3.org/2000/svg">
  <defs>
    <linearGradient id="g2084786252-bg" x1="0" y1="0" x2="1600" y2="900" gradientUnits="userSpaceOnUse">
      <stop offset="0%" stop-color="#0f1115" />
      <stop offset="100%" stop-color="#181b22" />
    </linearGradient>
    <filter id="g2084786252-blur" x="-50%" y="-50%" width="200%" height="200%">
      <feGaussianBlur stdDeviation="40.5" />
    </filter>
    <filter id="g2084786252-noise">
      <feTurbulence type="fractalNoise" baseFrequency="0.9" numOctaves="2" stitchTiles="stitch" result="noise" />
      <feColorMatrix in="noise" type="matrix" values="0 0 0 0 1  0 0 0 0 1  0 0 0 0 1  0 0 0 0.02 0" />
    </filter>
  </defs>
  <rect width="1600" height="900" fill="url(#g2084786252-bg)" />
  <path d="M 1237.0475618633463,623.0177469135803 Q 1237.0475618633463,623.0177469135803 1198.0746253944533,693.2259987837679 Q 1159.1016889255602,763.4342506539554 1088.8934370553725,772.4826105413891 Q 1018.685185185185,781.5309704288229 937.031663814467,783.9278800419196 Q 855.378142443749,786.3247896550163 838.2398804974601,704.6712682842983 Q 821.1016185511713,623.0177469135803 859.1155695886557,562.2399146340579 Q 897.1295206261402,501.46208235453554 957.9073529056626,459.39927309754 Q 1018.685185185185,417.3364638405445 1079.9199188625407,458.9423716997066 Q 1141.1546525398965,500.54827955886867 1189.1011072016213,561.7830132362244 Z" fill="#10b981" opacity="0.5219615912208505" filter="url(#g2084786252-blur)" />
  <path d="M 869.2644960713242,211.02237654320987 Q 869.2644960713242,211.02237654320987 830.3382231822127,327.0606562165095 Q 791.4119502931012,443.0989358898091 675.3736706198016,491.25264291499036 Q 559.335390946502,539.4063499401716 440.89267003310005,493.6570841550927 Q 322.4499491196981,447.90781837001384 307.3749717748209,329.4650974566119 Q 292.29999442994375,211.0223765432099 312.22887783792135,97.43356169290843 Q 332.157761245899,-16.155253157393048 445.7465760962005,-30.33877731692081 Q 559.335390946502,-44.522301476448575 655.5728446026243,-12.987416122741706 Q 751.8102982587466,18.547469230965163 810.5373971650354,114.78492288708752 Z" fill="#06b6d4" opacity="0.5183299039780521" filter="url(#g2084786252-blur)" />
  <path d="M 1041.6898583962047,265.6936728395062 Q 1041.6898583962047,265.6936728395062 969.0424686575436,373.52804357466755 Q 896.3950789188825,481.362414309829 788.5607081837211,548.4535493136116 Q 680.7263374485597,615.5446843173943 559.997620676923,561.3478953500869 Q 439.2689039052864,507.15110638277946 418.81035154649214,386.4223896111429 Q 398.35179918769796,265.69367283950623 447.8409858586741,173.99559038005154 Q 497.33017252965027,82.29750792059684 589.0282549891049,15.45103582611381 Q 680.7263374485595,-51.395436268369224 778.8141850723424,9.061270661785642 Q 876.9020326961253,69.51797759194051 959.2959455461651,167.60582521572334 Z" fill="#2563eb" opacity="0.44062414266117966" filter="url(#g2084786252-blur)" />
  <path d="M 1258.4215140643257,577.031635802469 Q 1258.4215140643257,577.031635802469 1198.7335764613626,641.7921095526567 Q 1139.0456388583998,706.5525833028444 1074.2851651082121,757.9360068267295 Q 1009.5246913580246,809.3194303506144 911.2626836772479,791.4375407573185 Q 813.000675996471,773.5556511640226 775.1937978260903,675.2936434832459 Q 737.3869196557096,577.031635802469 807.1050701422085,510.6809004378105 Q 876.8232206287075,444.330165073152 943.173955993366,377.5121024953046 Q 1009.5246913580246,310.6940399174572 1088.8058730455446,364.58165617244316 Q 1168.0870547330644,418.46927242742913 1213.254284398695,497.7504541149491 Z" fill="#10b981" opacity="0.4221776406035665" filter="url(#g2084786252-blur)" />
  <line x1="0" y1="150" x2="1600" y2="150" stroke="white" stroke-opacity="0.06" stroke-width="1" />
  <line x1="0" y1="300" x2="1600" y2="300" stroke="white" stroke-opacity="0.06" stroke-width="1" />
  <line x1="0" y1="450" x2="1600" y2="450" stroke="white" stroke-opacity="0.06" stroke-width="1" />
  <line x1="0" y1="600" x2="1600" y2="600" stroke="white" stroke-opacity="0.06" stroke-width="1" />
  <line x1="0" y1="750" x2="1600" y2="750" stroke="white" stroke-opacity="0.06" stroke-width="1" />
  <rect width="1600" height="900" filter="url(#g2084786252-noise)" />
  
    <g transform="translate(1516, 816)">
      <rect width="56" height="56" rx="14" fill="white" fill-opacity="0.14" />
      <text x="28" y="36" font-family="Arial, sans-serif" font-size="22" font-weight="700" fill="white" text-anchor="middle">NH</text>
    </g>
</svg>