<svg width="800" height="600" viewBox="0 0 800 600" xmlns="http://www.w3.org/2000/svg">
  <defs>
    <linearGradient id="g199548325-bg" x1="0" y1="0" x2="800" y2="600" gradientUnits="userSpaceOnUse">
      <stop offset="0%" stop-color="#0f1115" />
      <stop offset="100%" stop-color="#181b22" />
    </linearGradient>
    <filter id="g199548325-blur" x="-50%" y="-50%" width="200%" height="200%">
      <feGaussianBlur stdDeviation="27" />
    </filter>
    <filter id="g199548325-noise">
      <feTurbulence type="fractalNoise" baseFrequency="0.9" numOctaves="2" stitchTiles="stitch" result="noise" />
      <feColorMatrix in="noise" type="matrix" values="0 0 0 0 1  0 0 0 0 1  0 0 0 0 1  0 0 0 0.02 0" />
    </filter>
  </defs>
  <rect width="800" height="600" fill="url(#g199548325-bg)" />
  <path d="M 399.7888427760561,309.25231481481484 Q 399.7888427760561,309.25231481481484 338.50818764190154,373.3163554171108 Q 277.227532507747,437.3803960194068 213.163491905451,462.9637467608818 Q 149.099451303155,488.5470975023568 91.41869926998861,456.5804581917522 Q 33.73794723682221,424.61381888114767 -23.13777813648737,366.93306684798125 Q -80.01350350979695,309.25231481481484 -47.09938929325462,227.6099516248812 Q -14.185275076712287,145.9675884349476 67.45708811322133,104.62553516919752 Q 149.09945130315495,63.28348190344744 215.79493459027032,119.57241507201579 Q 282.49041787738565,175.86134824058414 341.13963032672086,242.5568315276995 Z" fill="#10b981" opacity="0.4571407750342935" filter="url(#g199548325-blur)" />
  <path d="M 675.823905115702,300.329475308642 Q 675.823905115702,300.329475308642 669.9837334937863,350.3433001403249 Q 664.1435618718707,400.3571249720078 614.1297370401878,419.7369946404258 Q 564.1159122085048,439.1168643088438 517.5211904305407,416.317891586707 Q 470.92646865257666,393.51891886457014 462.9280920675816,346.92419708660606 Q 454.9297154825865,300.329475308642 457.9590815788004,248.76574304189674 Q 460.9884476750143,197.2020107751515 512.5521799417595,195.0594896306232 Q 564.1159122085048,192.91696848609487 610.1816429643122,200.55749114156106 Q 656.2473737201195,208.19801379702722 666.0356394179107,254.2637445528346 Z" fill="#06b6d4" opacity="0.4985708161865569" filter="url(#g199548325-blur)" />
  <path d="M 514.0652206306768,509.18441358024694 Q 514.0652206306768,509.18441358024694 500.56665176664706,553.5226388449986 Q 487.0680829026173,597.8608641097503 442.72985763786556,622.2410145751478 Q 398.39163237311385,646.6211650405454 354.1472944182558,622.1471272652543 Q 309.9029564633977,597.6730894899631 282.91902098485724,553.428751535105 Q 255.9350855063168,509.18441358024694 268.63655604856984,450.6576106891015 Q 281.3380265908229,392.130807797956 339.8648294819684,383.43932240398374 Q 398.39163237311385,374.7478370100115 440.7295805440302,399.6281771242128 Q 483.0675287149466,424.50851723841413 498.56637467281166,466.84646540933056 Z" fill="#2563eb" opacity="0.48814900548696843" filter="url(#g199548325-blur)" />
  <line x1="0" y1="100" x2="800" y2="100" stroke="white" stroke-opacity="0.06" stroke-width="1" />
  <line x1="0" y1="200" x2="800" y2="200" stroke="white" stroke-opacity="0.06" stroke-width="1" />
  <line x1="0" y1="300" x2="800" y2="300" stroke="white" stroke-opacity="0.06" stroke-width="1" />
  <line x1="0" y1="400" x2="800" y2="400" stroke="white" stroke-opacity="0.06" stroke-width="1" />
  <line x1="0" y1="500" x2="800" y2="500" stroke="white" stroke-opacity="0.06" stroke-width="1" />
  <rect width="800" height="600" filter="url(#g199548325-noise)" />
  
    <g transform="translate(716, 516)">
      <rect width="56" height="56" rx="14" fill="white" fill-opacity="0.14" />
      <text x="28" y="36" font-family="Arial, sans-serif" font-size="22" font-weight="700" fill="white" text-anchor="middle">NH</text>
    </g>
</svg>