<svg width="800" height="600" viewBox="0 0 800 600" xmlns="http://www.w3.org/2000/svg">
  <defs>
    <linearGradient id="g2970525400-bg" x1="0" y1="0" x2="800" y2="600" gradientUnits="userSpaceOnUse">
      <stop offset="0%" stop-color="#0f1115" />
      <stop offset="100%" stop-color="#181b22" />
    </linearGradient>
    <filter id="g2970525400-blur" x="-50%" y="-50%" width="200%" height="200%">
      <feGaussianBlur stdDeviation="27" />
    </filter>
    <filter id="g2970525400-noise">
      <feTurbulence type="fractalNoise" baseFrequency="0.9" numOctaves="2" stitchTiles="stitch" result="noise" />
      <feColorMatrix in="noise" type="matrix" values="0 0 0 0 1  0 0 0 0 1  0 0 0 0 1  0 0 0 0.02 0" />
    </filter>
  </defs>
  <rect width="800" height="600" fill="url(#g2970525400-bg)" />
  <path d="M 531.4333422727663,91.17746913580247 Q 531.4333422727663,91.17746913580247 520.9539417295487,159.50133094981848 Q 510.47454118633095,227.82519276383448 442.1506793723149,237.08734657503896 Q 373.82681755829896,246.34950038624345 310.1011303973847,232.48917192193724 Q 246.3754432364704,218.62884345763104 229.1529744432195,154.90315629671676 Q 211.9305056499686,91.17746913580248 237.41294342325796,35.71175095492665 Q 262.8953811965473,-19.753967225949182 318.3610993774231,-55.23223686508476 Q 373.8268175582989,-90.71050650422033 426.44960134196003,-52.38930246787007 Q 479.07238512562117,-14.0680984315198 505.2528636991937,38.554685352141334 Z" fill="#6366f1" opacity="0.5029869684499314" filter="url(#g2970525400-blur)" />
  <path d="M 866.140953972901,412.8101851851852 Q 866.140953972901,412.8101851851852 813.9357005124631,489.99451022011414 Q 761.7304470520252,567.178835255043 684.5461220170962,597.0397683481183 Q 607.3617969821673,626.9007014411936 526.0314562438376,601.1857840515191 Q 444.7011155055079,575.4708666618446 416.70724678829015,494.14052592351493 Q 388.7133780710723,412.8101851851852 424.24221800507587,339.01481566364123 Q 459.77105793907936,265.21944614209724 533.5664274606233,213.2610658305665 Q 607.3617969821673,161.30268551903578 679.9255203042337,214.49271203004403 Q 752.4892436263002,267.6827385410523 809.3150987996006,340.2464618631187 Z" fill="#8b5cf6" opacity="0.39071330589849107" filter="url(#g2970525400-blur)" />
  <path d="M 689.2239717976103,252.22067901234567 Q 689.2239717976103,252.22067901234567 633.9164935349834,318.1138354825431 Q 578.6090152723566,384.0069919527406 512.7158588021591,442.9152498523444 Q 446.82270233196164,501.8235077519482 364.0431417516288,459.80165396247975 Q 281.26358117129604,417.77980017301127 268.313126121072,335.0002395926785 Q 255.36267107084797,252.2206790123457 279.0519959806114,180.17998829155232 Q 302.7413208903749,108.13929757075897 374.78201161116823,63.047386208915796 Q 446.8227023319616,17.955474847072622 536.5789322615708,45.33184700009987 Q 626.3351621911801,72.70821915312712 657.7795669943952,162.4644490827364 Z" fill="#10b981" opacity="0.4932544581618655" filter="url(#g2970525400-blur)" />
  <line x1="0" y1="100" x2="800" y2="100" stroke="white" stroke-opacity="0.06" stroke-width="1" />
  <line x1="0" y1="200" x2="800" y2="200" stroke="white" stroke-opacity="0.06" stroke-width="1" />
  <line x1="0" y1="300" x2="800" y2="300" stroke="white" stroke-opacity="0.06" stroke-width="1" />
  <line x1="0" y1="400" x2="800" y2="400" stroke="white" stroke-opacity="0.06" stroke-width="1" />
  <line x1="0" y1="500" x2="800" y2="500" stroke="white" stroke-opacity="0.06" stroke-width="1" />
  <rect width="800" height="600" filter="url(#g2970525400-noise)" />
  
    <g transform="translate(716, 516)">
      <rect width="56" height="56" rx="14" fill="white" fill-opacity="0.14" />
      <text x="28" y="36" font-family="Arial, sans-serif" font-size="22" font-weight="700" fill="white" text-anchor="middle">VC</text>
    </g>
</svg>