<svg width="1600" height="900" viewBox="0 0 1600 900" xmlns="http://www.w3.org/2000/svg">
  <defs>
    <linearGradient id="g1897077945-bg" x1="0" y1="0" x2="1600" y2="900" gradientUnits="userSpaceOnUse">
      <stop offset="0%" stop-color="#0f1115" />
      <stop offset="100%" stop-color="#181b22" />
    </linearGradient>
    <filter id="g1897077945-blur" x="-50%" y="-50%" width="200%" height="200%">
      <feGaussianBlur stdDeviation="40.5" />
    </filter>
    <filter id="g1897077945-noise">
      <feTurbulence type="fractalNoise" baseFrequency="0.9" numOctaves="2" stitchTiles="stitch" result="noise" />
      <feColorMatrix in="noise" type="matrix" values="0 0 0 0 1  0 0 0 0 1  0 0 0 0 1  0 0 0 0.02 0" />
    </filter>
  </defs>
  <rect width="1600" height="900" fill="url(#g1897077945-bg)" />
  <path d="M 1413.4434146654157,200.7843364197531 Q 1413.4434146654157,200.7843364197531 1380.6821869190476,313.66319735039997 Q 1347.9209591726794,426.5420582810469 1235.0420982420324,452.2803027780692 Q 1122.1632373113855,478.01854727509146 1025.455239556119,436.10943960268884 Q 928.7472418008524,394.2003319302862 895.6178879729794,297.49233417501966 Q 862.4885341451062,200.78433641975312 874.2735742428861,82.73202493439335 Q 886.0586143406659,-35.320286550966415 1004.1109258260258,-75.35829695068836 Q 1122.1632373113855,-115.3963073504103 1204.8647408723414,-40.00748902628452 Q 1287.5662444332972,35.38132929784126 1350.5048295493566,118.08283285879718 Z" fill="#6366f1" opacity="0.3657998971193415" filter="url(#g1897077945-blur)" />
  <path d="M 1595.980786441663,568.511188271605 Q 1595.980786441663,568.511188271605 1550.4162640620893,649.0365104160179 Q 1504.851741682516,729.5618325604308 1424.326419538103,758.3442920160979 Q 1343.80109739369,787.126751471765 1248.2462439718554,773.3738232935196 Q 1152.6913905500207,759.6208951152743 1130.8101314913838,664.0660416934396 Q 1108.9288724327466,568.511188271605 1112.409667882279,454.5558712406658 Q 1115.8904633318116,340.6005542097266 1229.8457803627507,303.27530705218464 Q 1343.80109739369,265.95005989464266 1425.402981377834,335.6287400989798 Q 1507.004865361978,405.3074203033169 1551.4928259018207,486.90930428746094 Z" fill="#8b5cf6" opacity="0.3800694444444444" filter="url(#g1897077945-blur)" />
  <path d="M 1102.3899522470217,492.90470679012344 Q 1102.3899522470217,492.90470679012344 1085.1765070391534,576.0186108196207 Q 1067.9630618312854,659.1325148491179 984.8491578017881,678.1783599825246 Q 901.7352537722909,697.2242051159312 827.8946989870024,668.9050107383159 Q 754.0541442017138,640.5858163607005 698.5814217359323,566.745261575412 Q 643.1086992701507,492.9047067901235 706.4401751560144,426.9229054249172 Q 769.7716510418782,360.9411040597108 835.7534524070845,330.87242619831613 Q 901.7352537722909,300.80374833692144 985.0381073868679,313.5513739489454 Q 1068.3409610014448,326.2989995609694 1085.3654566242333,409.6018531755464 Z" fill="#10b981" opacity="0.36470936213991767" filter="url(#g1897077945-blur)" />
  <path d="M 877.5405108469238,393.9648919753086 Q 877.5405108469238,393.9648919753086 813.6042603226887,497.48271031760805 Q 749.6680097984536,601.0005286599076 646.1501914561541,648.8546639069999 Q 542.6323731138547,696.7087991540923 440.09306492787965,647.8761537506755 Q 337.55375674190464,599.0435083472587 291.20819537039347,496.5042001612837 Q 244.8626339988823,393.96489197530866 308.5441406302978,308.761529049238 Q 372.22564726171333,223.5581661231673 457.429010187784,155.60181698806838 Q 542.6323731138547,87.64546785296949 661.7866411509378,121.65091187705583 Q 780.940909188021,155.65635590114218 829.2407100174723,274.8106239382254 Z" fill="#6366f1" opacity="0.4530529835390946" filter="url(#g1897077945-blur)" />
  <line x1="0" y1="150" x2="1600" y2="150" stroke="white" stroke-opacity="0.06" stroke-width="1" />
  <line x1="0" y1="300" x2="1600" y2="300" stroke="white" stroke-opacity="0.06" stroke-width="1" />
  <line x1="0" y1="450" x2="1600" y2="450" stroke="white" stroke-opacity="0.06" stroke-width="1" />
  <line x1="0" y1="600" x2="1600" y2="600" stroke="white" stroke-opacity="0.06" stroke-width="1" />
  <line x1="0" y1="750" x2="1600" y2="750" stroke="white" stroke-opacity="0.06" stroke-width="1" />
  <rect width="1600" height="900" filter="url(#g1897077945-noise)" />
  
    <g transform="translate(1516, 816)">
      <rect width="56" height="56" rx="14" fill="white" fill-opacity="0.14" />
      <text x="28" y="36" font-family="Arial, sans-serif" font-size="22" font-weight="700" fill="white" text-anchor="middle">VC</text>
    </g>
</svg>