<svg width="800" height="600" viewBox="0 0 800 600" xmlns="http://www.w3.org/2000/svg">
  <defs>
    <linearGradient id="g691866841-bg" x1="0" y1="0" x2="800" y2="600" gradientUnits="userSpaceOnUse">
      <stop offset="0%" stop-color="#0f1115" />
      <stop offset="100%" stop-color="#181b22" />
    </linearGradient>
    <filter id="g691866841-blur" x="-50%" y="-50%" width="200%" height="200%">
      <feGaussianBlur stdDeviation="27" />
    </filter>
    <filter id="g691866841-noise">
      <feTurbulence type="fractalNoise" baseFrequency="0.9" numOctaves="2" stitchTiles="stitch" result="noise" />
      <feColorMatrix in="noise" type="matrix" values="0 0 0 0 1  0 0 0 0 1  0 0 0 0 1  0 0 0 0.02 0" />
    </filter>
  </defs>
  <rect width="800" height="600" fill="url(#g691866841-bg)" />
  <path d="M 319.71254490003355,202.58873456790124 Q 319.71254490003355,202.58873456790124 315.5864176853557,286.60660271133344 Q 311.4602904706778,370.6244708547656 227.44242232724562,374.75350691333443 Q 143.42455418381343,378.88254297190326 74.54901938083337,359.6111735728823 Q 5.673484577853316,340.33980417386135 0.8104500689589003,271.4642693708813 Q -4.052584439935515,202.58873456790127 -3.898885239434307,129.003864456528 Q -3.745186038933099,55.41899434515474 69.83968407244015,54.76372734802841 Q 143.4245541838134,54.10846035090208 225.49163446224134,46.28151718097368 Q 307.5587147406693,38.45457401104528 313.6356298203514,120.52165428947326 Z" fill="#10b981" opacity="0.5335090877914952" filter="url(#g691866841-blur)" />
  <path d="M 509.7138950896007,504.7770061728395 Q 509.7138950896007,504.7770061728395 476.72205731292206,582.2364232111944 Q 443.73021953624345,659.6958402495493 366.27080249788855,703.3648606856153 Q 288.8113854595336,747.0338811216814 210.18175809939206,704.5350710074019 Q 131.55213073925052,662.0362608931226 111.36455330707975,583.406633532981 Q 91.17697587490898,504.7770061728395 118.42505187771614,433.2078773833344 Q 145.6731278805233,361.6387485938293 217.24225667002844,321.37532798139 Q 288.81138545953354,281.11190736895065 367.5170899688263,314.23875226160226 Q 446.2227944781191,347.3655971542539 477.96834478385995,426.0713016635467 Z" fill="#06b6d4" opacity="0.5008650548696845" filter="url(#g691866841-blur)" />
  <path d="M 470.65666649290563,464.74305555555554 Q 470.65666649290563,464.74305555555554 429.89821456954974,545.9175322147292 Q 389.13976264619384,627.092008873903 307.96528598702014,680.9852105963312 Q 226.79080932784638,734.8784123187593 118.1910212037195,708.4105220612843 Q 9.591233079592627,681.9426318038093 -6.774695199447805,573.3428436796825 Q -23.140623478488237,464.7430555555556 27.01737575283991,389.9353383837165 Q 77.17537498416806,315.12762121187734 151.9830921560072,288.2669466027203 Q 226.79080932784632,261.4062719935632 328.3866310101097,261.478842092296 Q 429.98245269237304,261.5514121910288 450.31955959263934,363.1472338732922 Z" fill="#2563eb" opacity="0.5497025034293552" filter="url(#g691866841-blur)" />
  <line x1="0" y1="100" x2="800" y2="100" stroke="white" stroke-opacity="0.06" stroke-width="1" />
  <line x1="0" y1="200" x2="800" y2="200" stroke="white" stroke-opacity="0.06" stroke-width="1" />
  <line x1="0" y1="300" x2="800" y2="300" stroke="white" stroke-opacity="0.06" stroke-width="1" />
  <line x1="0" y1="400" x2="800" y2="400" stroke="white" stroke-opacity="0.06" stroke-width="1" />
  <line x1="0" y1="500" x2="800" y2="500" stroke="white" stroke-opacity="0.06" stroke-width="1" />
  <rect width="800" height="600" filter="url(#g691866841-noise)" />
  
    <g transform="translate(716, 516)">
      <rect width="56" height="56" rx="14" fill="white" fill-opacity="0.14" />
      <text x="28" y="36" font-family="Arial, sans-serif" font-size="22" font-weight="700" fill="white" text-anchor="middle">OPS</text>
    </g>
</svg>