<svg width="800" height="600" viewBox="0 0 800 600" xmlns="http://www.w3.org/2000/svg">
  <defs>
    <linearGradient id="g1302075216-bg" x1="0" y1="0" x2="800" y2="600" gradientUnits="userSpaceOnUse">
      <stop offset="0%" stop-color="#0f1115" />
      <stop offset="100%" stop-color="#181b22" />
    </linearGradient>
    <filter id="g1302075216-blur" x="-50%" y="-50%" width="200%" height="200%">
      <feGaussianBlur stdDeviation="27" />
    </filter>
    <filter id="g1302075216-noise">
      <feTurbulence type="fractalNoise" baseFrequency="0.9" numOctaves="2" stitchTiles="stitch" result="noise" />
      <feColorMatrix in="noise" type="matrix" values="0 0 0 0 1  0 0 0 0 1  0 0 0 0 1  0 0 0 0.02 0" />
    </filter>
  </defs>
  <rect width="800" height="600" fill="url(#g1302075216-bg)" />
  <path d="M 633.3305588234982,172.5128600823045 Q 633.3305588234982,172.5128600823045 612.7357843215816,244.15418117869388 Q 592.1410098196649,315.7955022750832 520.4996887232755,330.71822493433007 Q 448.8583676268861,345.6409475935769 384.6549961061846,323.28027535864214 Q 320.4516245854832,300.91960312370736 266.401260000895,236.71623160300595 Q 212.35089541630677,172.51286008230454 261.4737224573518,103.38195101805991 Q 310.5965494983968,34.251041953815275 379.72745856264146,-10.855925294806326 Q 448.85836762688604,-55.96289254342793 522.0557078893235,-14.922356492999171 Q 595.2530481517609,26.118179557429585 614.2918034876295,99.31551981986705 Z" fill="#2563eb" opacity="0.47093621399176955" filter="url(#g1302075216-blur)" />
  <path d="M 509.97383603024605,141.55298353909464 Q 509.97383603024605,141.55298353909464 505.63166362107347,234.21093216287778 Q 501.28949121190095,326.8688807866609 408.6315425881178,367.4410915266848 Q 315.97359396433467,408.0133022667086 223.5703763239381,367.18636054329824 Q 131.1671586835415,326.3594188198879 81.8181471966984,233.95620117949127 Q 32.46913570985532,141.55298353909467 82.11575015484843,49.447368856848115 Q 131.76236459984153,-42.65824582539844 223.86797928208807,-67.29846916340311 Q 315.9735939643346,-91.93869250140779 382.01554885555987,-41.23480937238185 Q 448.05750374678513,9.469073756644093 479.0156698885156,75.51102864786937 Z" fill="#6366f1" opacity="0.37594650205761315" filter="url(#g1302075216-blur)" />
  <path d="M 759.2741837419981,375.0375514403292 Q 759.2741837419981,375.0375514403292 730.8291202029025,427.27776221393367 Q 702.384056663807,479.5179729875381 650.1438458902026,498.46207746813457 Q 597.903635116598,517.406181948731 546.0636725433982,498.06182926773 Q 494.2237099701983,478.71747658672894 441.1988070027031,426.8775140135291 Q 388.173904035208,375.0375514403292 431.979691614877,313.97847347930326 Q 475.78547919454604,252.91939551827727 536.844557155572,208.47094131123623 Q 597.903635116598,164.02248710419522 650.4513638725091,216.98229051635104 Q 702.9990926284203,269.9420939285069 731.1366381852092,322.4898226844181 Z" fill="#06b6d4" opacity="0.5179938271604938" filter="url(#g1302075216-blur)" />
  <line x1="0" y1="100" x2="800" y2="100" stroke="white" stroke-opacity="0.06" stroke-width="1" />
  <line x1="0" y1="200" x2="800" y2="200" stroke="white" stroke-opacity="0.06" stroke-width="1" />
  <line x1="0" y1="300" x2="800" y2="300" stroke="white" stroke-opacity="0.06" stroke-width="1" />
  <line x1="0" y1="400" x2="800" y2="400" stroke="white" stroke-opacity="0.06" stroke-width="1" />
  <line x1="0" y1="500" x2="800" y2="500" stroke="white" stroke-opacity="0.06" stroke-width="1" />
  <rect width="800" height="600" filter="url(#g1302075216-noise)" />
  
    <g transform="translate(716, 516)">
      <rect width="56" height="56" rx="14" fill="white" fill-opacity="0.14" />
      <text x="28" y="36" font-family="Arial, sans-serif" font-size="22" font-weight="700" fill="white" text-anchor="middle">RA</text>
    </g>
</svg>