<svg width="800" height="600" viewBox="0 0 800 600" xmlns="http://www.w3.org/2000/svg">
  <defs>
    <linearGradient id="g2614479991-bg" x1="0" y1="0" x2="800" y2="600" gradientUnits="userSpaceOnUse">
      <stop offset="0%" stop-color="#0f1115" />
      <stop offset="100%" stop-color="#181b22" />
    </linearGradient>
    <filter id="g2614479991-blur" x="-50%" y="-50%" width="200%" height="200%">
      <feGaussianBlur stdDeviation="27" />
    </filter>
    <filter id="g2614479991-noise">
      <feTurbulence type="fractalNoise" baseFrequency="0.9" numOctaves="2" stitchTiles="stitch" result="noise" />
      <feColorMatrix in="noise" type="matrix" values="0 0 0 0 1  0 0 0 0 1  0 0 0 0 1  0 0 0 0.02 0" />
    </filter>
  </defs>
  <rect width="800" height="600" fill="url(#g2614479991-bg)" />
  <path d="M 365.5648024993896,338.75385802469134 Q 365.5648024993896,338.75385802469134 363.6011552296816,437.8860550773805 Q 361.6375079599736,537.0182521300696 262.50531090728447,568.4191811730896 Q 163.37311385459535,599.8201102161094 84.67546187874225,547.9846360962534 Q 5.977809902889163,496.1491619763975 -41.48688377711666,417.45151000054443 Q -88.95157745712248,338.7538580246914 -30.02257851560374,271.52051131035125 Q 28.906420425915,204.28716459601105 96.13976714025513,119.79537529932469 Q 163.37311385459526,35.303586002638326 241.36890716509507,109.03292870316503 Q 319.3647004755949,182.76227140369173 342.4647514874922,260.7580647141915 Z" fill="#06b6d4" opacity="0.46810270919067215" filter="url(#g2614479991-blur)" />
  <path d="M 651.3400446579147,275.386574074074 Q 651.3400446579147,275.386574074074 616.5304722377343,344.45964401028573 Q 581.7208998175538,413.5327139464975 512.647829881342,455.922620533447 Q 443.57475994513027,498.31252712039645 382.7263030628461,447.6980074795194 Q 321.87784618056196,397.0834878386423 277.2789600755866,336.2350309563582 Q 232.68007397061123,275.386574074074 246.326384239824,183.5855413560273 Q 259.9726945090368,91.7845086379806 351.7737272270835,54.543641374347175 Q 443.5747599451302,17.302774110713756 510.20353048723007,79.71590355029396 Q 576.83230102933,142.12903298987416 614.0861728436223,208.7578035319741 Z" fill="#2563eb" opacity="0.3724957133058985" filter="url(#g2614479991-blur)" />
  <path d="M 538.8777814183807,149.79706790123458 Q 538.8777814183807,149.79706790123458 497.6703593527369,213.17737056398553 Q 456.4629372870931,276.5576732267365 393.0826346243422,298.62251248818023 Q 329.7023319615912,320.687351749624 261.7239127435688,303.2206290434517 Q 193.74549352554635,285.75390633727943 163.13427345498533,217.77548711925704 Q 132.52305338442432,149.7970679012346 172.20766356553585,90.89203879376271 Q 211.8922737466474,31.98700968629082 270.79730285411927,10.972257855959263 Q 329.70233196159114,-10.042493974372292 383.11062429162484,16.468994633397436 Q 436.51891662165855,42.980483241167164 487.6983490200196,96.38877557120088 Z" fill="#8b5cf6" opacity="0.49170353223593966" filter="url(#g2614479991-blur)" />
  <line x1="0" y1="100" x2="800" y2="100" stroke="white" stroke-opacity="0.06" stroke-width="1" />
  <line x1="0" y1="200" x2="800" y2="200" stroke="white" stroke-opacity="0.06" stroke-width="1" />
  <line x1="0" y1="300" x2="800" y2="300" stroke="white" stroke-opacity="0.06" stroke-width="1" />
  <line x1="0" y1="400" x2="800" y2="400" stroke="white" stroke-opacity="0.06" stroke-width="1" />
  <line x1="0" y1="500" x2="800" y2="500" stroke="white" stroke-opacity="0.06" stroke-width="1" />
  <rect width="800" height="600" filter="url(#g2614479991-noise)" />
  
    <g transform="translate(716, 516)">
      <rect width="56" height="56" rx="14" fill="white" fill-opacity="0.14" />
      <text x="28" y="36" font-family="Arial, sans-serif" font-size="22" font-weight="700" fill="white" text-anchor="middle">CMS</text>
    </g>
</svg>