<svg width="800" height="600" viewBox="0 0 800 600" xmlns="http://www.w3.org/2000/svg">
  <defs>
    <linearGradient id="g571040894-bg" x1="0" y1="0" x2="800" y2="600" gradientUnits="userSpaceOnUse">
      <stop offset="0%" stop-color="#0f1115" />
      <stop offset="100%" stop-color="#181b22" />
    </linearGradient>
    <filter id="g571040894-blur" x="-50%" y="-50%" width="200%" height="200%">
      <feGaussianBlur stdDeviation="27" />
    </filter>
    <filter id="g571040894-noise">
      <feTurbulence type="fractalNoise" baseFrequency="0.9" numOctaves="2" stitchTiles="stitch" result="noise" />
      <feColorMatrix in="noise" type="matrix" values="0 0 0 0 1  0 0 0 0 1  0 0 0 0 1  0 0 0 0.02 0" />
    </filter>
  </defs>
  <rect width="800" height="600" fill="url(#g571040894-bg)" />
  <path d="M 346.9353678393686,439.83436213991774 Q 346.9353678393686,439.83436213991774 305.1615552021379,492.8147560561162 Q 263.38774256490717,545.7951499723147 210.4073486487087,594.2480630165785 Q 157.42695473251027,642.7009760608422 91.7158197764429,606.9788040564474 Q 26.00468482037553,571.2566320520525 21.93029096002384,505.5454970959851 Q 17.85589709967215,439.83436213991774 23.926359012196386,376.11929523602294 Q 29.996820924720623,312.4042283321281 93.71188782861543,293.73017824605483 Q 157.42695473251024,275.05612815998154 232.6482139990364,282.2239858834235 Q 307.86947326556253,289.39184360686545 327.40242055246557,364.6131028733916 Z" fill="#8b5cf6" opacity="0.35522805212620023" filter="url(#g571040894-blur)" />
  <path d="M 574.5944128300755,126.28189300411522 Q 574.5944128300755,126.28189300411522 501.5105184401325,184.76732437077374 Q 428.4266240501895,243.25275573743227 369.94119268353097,314.1667737973976 Q 311.45576131687244,385.08079185736284 230.83318984697763,336.3039139006338 Q 150.21061837708285,287.5270359439048 139.96841507989683,206.90446447401004 Q 129.7262117827108,126.28189300411525 158.0163744421103,63.70728089643393 Q 186.30653710150978,1.1326687887526106 248.88114920919108,-57.88648199010949 Q 311.4557613168724,-116.90563276897159 404.4924034460922,-88.34851201164808 Q 497.5290455753121,-59.79139125432458 536.0617292026939,33.24525087489532 Z" fill="#6366f1" opacity="0.5108556241426612" filter="url(#g571040894-blur)" />
  <path d="M 704.9116142882923,403.8405349794239 Q 704.9116142882923,403.8405349794239 709.7826054808412,476.5731975136498 Q 714.6535966733901,549.3058600478757 641.9209341391642,539.4157157197512 Q 569.1882716049382,529.5255713916267 519.6929610989957,516.1783636914679 Q 470.1976505930532,502.83115599130895 454.73244788138015,453.33584548536646 Q 439.26724516970717,403.8405349794239 448.26362318129975,347.87639977340103 Q 457.2600011928924,291.91226456737814 513.2241363989153,270.07080061660963 Q 569.1882716049382,248.22933666584115 625.7887878604065,269.43441956716424 Q 682.3893041158747,290.63950246848736 693.6504592020835,347.24001872395564 Z" fill="#2563eb" opacity="0.5257424554183814" filter="url(#g571040894-blur)" />
  <line x1="0" y1="100" x2="800" y2="100" stroke="white" stroke-opacity="0.06" stroke-width="1" />
  <line x1="0" y1="200" x2="800" y2="200" stroke="white" stroke-opacity="0.06" stroke-width="1" />
  <line x1="0" y1="300" x2="800" y2="300" stroke="white" stroke-opacity="0.06" stroke-width="1" />
  <line x1="0" y1="400" x2="800" y2="400" stroke="white" stroke-opacity="0.06" stroke-width="1" />
  <line x1="0" y1="500" x2="800" y2="500" stroke="white" stroke-opacity="0.06" stroke-width="1" />
  <rect width="800" height="600" filter="url(#g571040894-noise)" />
  
    <g transform="translate(716, 516)">
      <rect width="56" height="56" rx="14" fill="white" fill-opacity="0.14" />
      <text x="28" y="36" font-family="Arial, sans-serif" font-size="22" font-weight="700" fill="white" text-anchor="middle">3D</text>
    </g>
</svg>