<svg width="800" height="500" viewBox="0 0 800 500" xmlns="http://www.w3.org/2000/svg">
  <defs>
    <linearGradient id="g266183634-bg" x1="0" y1="0" x2="800" y2="500" gradientUnits="userSpaceOnUse">
      <stop offset="0%" stop-color="#0f1115" />
      <stop offset="100%" stop-color="#181b22" />
    </linearGradient>
    <filter id="g266183634-blur" x="-50%" y="-50%" width="200%" height="200%">
      <feGaussianBlur stdDeviation="22.5" />
    </filter>
    <filter id="g266183634-noise">
      <feTurbulence type="fractalNoise" baseFrequency="0.9" numOctaves="2" stitchTiles="stitch" result="noise" />
      <feColorMatrix in="noise" type="matrix" values="0 0 0 0 1  0 0 0 0 1  0 0 0 0 1  0 0 0 0.02 0" />
    </filter>
  </defs>
  <rect width="800" height="500" fill="url(#g266183634-bg)" />
  <path d="M 800.0548262276968,230.92764060356652 Q 800.0548262276968,230.92764060356652 781.9765182823655,293.22019570349653 Q 763.8982103370341,355.5127508034265 701.6056552371042,409.0100702442645 Q 639.3131001371742,462.50738968510257 565.9082336031565,420.1223816783522 Q 492.5033670691389,377.7373736716018 481.8703394946663,304.3325071375842 Q 471.23731192019375,230.92764060356654 490.20989147096424,165.86232604584683 Q 509.1824710217347,100.79701148812711 574.2477855794544,53.829315083376386 Q 639.3131001371742,6.8616186786256606 713.261492244612,44.94623753365822 Q 787.2098843520498,83.03085638869078 793.6323552898733,156.97924849612866 Z" fill="#8b5cf6" opacity="0.5201286008230452" filter="url(#g266183634-blur)" />
  <path d="M 357.3525057876986,406.0536694101509 Q 357.3525057876986,406.0536694101509 318.42085519379293,474.0655899542646 Q 279.48920459988733,542.0775104983784 211.47728405577357,561.0269842054904 Q 143.4653635116598,579.9764579126023 76.14894599136316,560.3314811816733 Q 8.832528471066524,540.6865044507442 6.962229015908974,473.37008693044754 Q 5.091929560751424,406.0536694101509 16.06022778309582,347.8352506570411 Q 27.028526005440213,289.61683190393137 85.24694475855,247.9991237453608 Q 143.46536351165977,206.38141558679024 210.88529003749068,238.79761597263968 Q 278.30521656332155,271.2138163584891 317.82886117551004,338.63374288432 Z" fill="#6366f1" opacity="0.5177314814814815" filter="url(#g266183634-blur)" />
  <path d="M 598.6318147465893,334.8834019204389 Q 598.6318147465893,334.8834019204389 581.8323539620126,399.51696099201007 Q 565.0328931774358,464.1505200635812 500.3993341058646,475.3159987714126 Q 435.7657750342935,486.48147747924395 386.8779719398415,459.5702427942935 Q 337.9901688453894,432.65900810934306 312.03893354643174,383.771205014891 Q 286.0876982474741,334.8834019204389 308.8156280403782,282.7722933199334 Q 331.54355783328236,230.6611847194278 383.65466643378795,224.95761498913677 Q 435.7657750342935,219.25404525884574 499.40436100537465,213.43013761856113 Q 563.0429469764558,207.60622997827653 580.8373808615225,271.24481594935776 Z" fill="#2563eb" opacity="0.48570473251028806" filter="url(#g266183634-blur)" />
  <line x1="0" y1="83.33333333333333" x2="800" y2="83.33333333333333" stroke="white" stroke-opacity="0.06" stroke-width="1" />
  <line x1="0" y1="166.66666666666666" x2="800" y2="166.66666666666666" stroke="white" stroke-opacity="0.06" stroke-width="1" />
  <line x1="0" y1="250" x2="800" y2="250" stroke="white" stroke-opacity="0.06" stroke-width="1" />
  <line x1="0" y1="333.3333333333333" x2="800" y2="333.3333333333333" stroke="white" stroke-opacity="0.06" stroke-width="1" />
  <line x1="0" y1="416.66666666666663" x2="800" y2="416.66666666666663" stroke="white" stroke-opacity="0.06" stroke-width="1" />
  <rect width="800" height="500" filter="url(#g266183634-noise)" />
  
</svg>