<svg width="800" height="500" viewBox="0 0 800 500" xmlns="http://www.w3.org/2000/svg">
  <defs>
    <linearGradient id="g2132808316-bg" x1="0" y1="0" x2="800" y2="500" gradientUnits="userSpaceOnUse">
      <stop offset="0%" stop-color="#0f1115" />
      <stop offset="100%" stop-color="#181b22" />
    </linearGradient>
    <filter id="g2132808316-blur" x="-50%" y="-50%" width="200%" height="200%">
      <feGaussianBlur stdDeviation="22.5" />
    </filter>
    <filter id="g2132808316-noise">
      <feTurbulence type="fractalNoise" baseFrequency="0.9" numOctaves="2" stitchTiles="stitch" result="noise" />
      <feColorMatrix in="noise" type="matrix" values="0 0 0 0 1  0 0 0 0 1  0 0 0 0 1  0 0 0 0.02 0" />
    </filter>
  </defs>
  <rect width="800" height="500" fill="url(#g2132808316-bg)" />
  <path d="M 498.65568479879477,367.70190329218104 Q 498.65568479879477,367.70190329218104 475.8503475243963,420.2307527244501 Q 453.04501024999774,472.7596021567192 400.51616081772863,521.1764767208066 Q 347.9873113854596,569.593351284894 287.5691182554891,529.065820418508 Q 227.15092512551865,488.53828955212197 202.43764130656922,428.1200964221515 Q 177.72435748761976,367.70190329218104 211.19652630411582,316.0425951597572 Q 244.66869512061186,264.3832870273334 296.3280032530357,230.92992230958575 Q 347.9873113854595,197.47655759183812 393.02521053726736,237.55133129020177 Q 438.0631096890752,277.62610498856543 468.35939724393495,322.6640041403732 Z" fill="#2563eb" opacity="0.5400548696844993" filter="url(#g2132808316-blur)" />
  <path d="M 666.6159610034616,130.1736111111111 Q 666.6159610034616,130.1736111111111 641.8112646630218,179.02686097884927 Q 617.0065683225821,227.88011084658746 568.1533184548439,238.05870538187185 Q 519.3000685871057,248.23729991715624 474.29152306498594,234.21400103625342 Q 429.2829775428662,220.1907021553506 380.9691386518114,175.18215663323087 Q 332.65529976075663,130.17361111111111 377.25859715657896,81.45452409375892 Q 421.8618945524013,32.735437076406726 470.5809815697535,12.160804884710714 Q 519.3000685871057,-8.413827306985297 572.6912738430713,7.488686646097257 Q 626.0824790990368,23.39120059917981 646.3492200512492,76.78240585514544 Z" fill="#6366f1" opacity="0.4722256515775034" filter="url(#g2132808316-blur)" />
  <path d="M 443.659651776961,190.79346707818928 Q 443.659651776961,190.79346707818928 430.7411015056855,251.43536683805547 Q 417.82255123440996,312.07726659792166 357.18065147454377,338.83130245906193 Q 296.5387517146776,365.58533832020214 247.26140426788308,327.4667501459902 Q 197.9840568210886,289.34816197177827 172.73367086201995,240.0708145249838 Q 147.4832849029513,190.7934670781893 163.6968952272887,132.47934399666357 Q 179.9105055516261,74.16522091513782 238.22462863315184,63.74574294359069 Q 296.5387517146776,53.32626497204356 355.3781849841618,63.22043275563216 Q 414.21761825364604,73.11460053922076 428.93863501530353,131.95403380870502 Z" fill="#06b6d4" opacity="0.41921124828532236" filter="url(#g2132808316-blur)" />
  <line x1="0" y1="83.33333333333333" x2="800" y2="83.33333333333333" stroke="white" stroke-opacity="0.06" stroke-width="1" />
  <line x1="0" y1="166.66666666666666" x2="800" y2="166.66666666666666" stroke="white" stroke-opacity="0.06" stroke-width="1" />
  <line x1="0" y1="250" x2="800" y2="250" stroke="white" stroke-opacity="0.06" stroke-width="1" />
  <line x1="0" y1="333.3333333333333" x2="800" y2="333.3333333333333" stroke="white" stroke-opacity="0.06" stroke-width="1" />
  <line x1="0" y1="416.66666666666663" x2="800" y2="416.66666666666663" stroke="white" stroke-opacity="0.06" stroke-width="1" />
  <rect width="800" height="500" filter="url(#g2132808316-noise)" />
  
</svg>