<svg width="200" height="200" viewBox="0 0 200 200" xmlns="http://www.w3.org/2000/svg">
  <defs>
    <linearGradient id="g4223950345-bg" x1="0" y1="0" x2="200" y2="200" gradientUnits="userSpaceOnUse">
      <stop offset="0%" stop-color="#0f1115" />
      <stop offset="100%" stop-color="#181b22" />
    </linearGradient>
    <filter id="g4223950345-blur" x="-50%" y="-50%" width="200%" height="200%">
      <feGaussianBlur stdDeviation="9" />
    </filter>
    <filter id="g4223950345-noise">
      <feTurbulence type="fractalNoise" baseFrequency="0.9" numOctaves="2" stitchTiles="stitch" result="noise" />
      <feColorMatrix in="noise" type="matrix" values="0 0 0 0 1  0 0 0 0 1  0 0 0 0 1  0 0 0 0.02 0" />
    </filter>
  </defs>
  <rect width="200" height="200" fill="url(#g4223950345-bg)" />
  <path d="M 121.31183793362057,50.04398148148148 Q 121.31183793362057,50.04398148148148 113.5536738101145,76.47251478843455 Q 105.79550968660845,102.90104809538761 79.3669763796554,112.58388522322292 Q 52.938443072702334,122.26672235105825 24.093448414397173,115.00034657457502 Q -4.751546243907988,107.7339707980918 -13.201244444411476,78.88897613978665 Q -21.650942644914963,50.04398148148149 -14.923476414518142,19.47675485306967 Q -8.19601018412132,-11.090471775342145 22.371216444290496,-21.38560418805037 Q 52.93844307270231,-31.680736600758593 81.13336511652832,-19.01329960346458 Q 109.32828716035435,-6.34586260617057 115.32006254698746,21.849059437655455 Z" fill="#2563eb" opacity="0.4221099108367627" filter="url(#g4223950345-blur)" />
  <path d="M 188.89473371985315,62.62525720164609 Q 188.89473371985315,62.62525720164609 187.53176728569377,92.91893403344898 Q 186.16880085153443,123.21261086525186 155.87512401973154,122.25163337560313 Q 125.58144718792865,121.29065588595441 96.89842706937955,120.64097666234936 Q 68.21540695083044,119.99129743874431 53.30083617823406,91.3082773201952 Q 38.38626540563767,62.62525720164611 61.657266366831415,42.29866727169437 Q 84.92826732802516,21.972077341742626 105.2548572579769,4.826244005576864 Q 125.58144718792863,-12.319589330588897 154.44866041201016,-3.7143792885529407 Q 183.3158736360917,4.890830753483016 186.10530367797242,33.758043977564554 Z" fill="#6366f1" opacity="0.35242884087791493" filter="url(#g4223950345-blur)" />
  <path d="M 119.41392171679216,147.79912551440327 Q 119.41392171679216,147.79912551440327 106.17044081556612,167.74297241258841 Q 92.92695991434009,187.68681931077353 72.98311301615496,192.92159205019283 Q 53.03926611796982,198.1563647896121 36.202782851026825,189.81422841895068 Q 19.36629958408384,181.47209204828926 11.3783674533451,164.63560878134626 Q 3.3904353226063577,147.79912551440327 8.109162837996568,127.69343763211177 Q 12.827890353386778,107.58774974982025 32.9335782356783,99.48828300226455 Q 53.03926611796981,91.38881625470887 72.78905446282366,99.84418253970222 Q 92.53884280767751,108.29954882469556 105.97638226223484,128.0493371695494 Z" fill="#06b6d4" opacity="0.43089591906721536" filter="url(#g4223950345-blur)" />
  <line x1="0" y1="33.333333333333336" x2="200" y2="33.333333333333336" stroke="white" stroke-opacity="0.06" stroke-width="1" />
  <line x1="0" y1="66.66666666666667" x2="200" y2="66.66666666666667" stroke="white" stroke-opacity="0.06" stroke-width="1" />
  <line x1="0" y1="100" x2="200" y2="100" stroke="white" stroke-opacity="0.06" stroke-width="1" />
  <line x1="0" y1="133.33333333333334" x2="200" y2="133.33333333333334" stroke="white" stroke-opacity="0.06" stroke-width="1" />
  <line x1="0" y1="166.66666666666669" x2="200" y2="166.66666666666669" stroke="white" stroke-opacity="0.06" stroke-width="1" />
  <rect width="200" height="200" filter="url(#g4223950345-noise)" />
  
    <g transform="translate(116, 116)">
      <rect width="56" height="56" rx="14" fill="white" fill-opacity="0.14" />
      <text x="28" y="36" font-family="Arial, sans-serif" font-size="22" font-weight="700" fill="white" text-anchor="middle">TR</text>
    </g>
</svg>