<svg width="200" height="200" viewBox="0 0 200 200" xmlns="http://www.w3.org/2000/svg">
  <defs>
    <linearGradient id="g3215764627-bg" x1="0" y1="0" x2="200" y2="200" gradientUnits="userSpaceOnUse">
      <stop offset="0%" stop-color="#0f1115" />
      <stop offset="100%" stop-color="#181b22" />
    </linearGradient>
    <filter id="g3215764627-blur" x="-50%" y="-50%" width="200%" height="200%">
      <feGaussianBlur stdDeviation="9" />
    </filter>
    <filter id="g3215764627-noise">
      <feTurbulence type="fractalNoise" baseFrequency="0.9" numOctaves="2" stitchTiles="stitch" result="noise" />
      <feColorMatrix in="noise" type="matrix" values="0 0 0 0 1  0 0 0 0 1  0 0 0 0 1  0 0 0 0.02 0" />
    </filter>
  </defs>
  <rect width="200" height="200" fill="url(#g3215764627-bg)" />
  <path d="M 156.32687636436242,43.58770576131687 Q 156.32687636436242,43.58770576131687 138.24261781595038,66.70666591634804 Q 120.15835926753834,89.82562607137922 97.03939911250717,99.36864422707245 Q 73.920438957476,108.91166238276567 40.40256400908567,109.76755902043159 Q 6.884689060695351,110.62345565809751 -3.899978515404932,77.1055807097072 Q -14.684646091505215,43.58770576131688 8.113880752087478,22.08369008041897 Q 30.912407595680172,0.5796743995210605 52.41642327657807,-21.367898049704483 Q 73.92043895747598,-43.315470498930026 98.73946313840159,-24.68290654973219 Q 123.55848731932718,-6.050342600534357 139.9426818418448,18.768681580391256 Z" fill="#8b5cf6" opacity="0.3505409807956104" filter="url(#g3215764627-blur)" />
  <path d="M 144.15349870608284,53.57638888888889 Q 144.15349870608284,53.57638888888889 140.56843154388721,81.19375695079093 Q 136.9833643816916,108.81112501269297 109.36599631978956,121.67889905918408 Q 81.74862825788752,134.54667310567518 62.012293338111355,113.7978659170582 Q 42.27595841833519,93.04905872844122 23.70027490210729,73.31272380866506 Q 5.124591385879384,53.5763888888889 16.834858625207787,26.974637692213243 Q 28.54512586453619,0.37288649553758546 55.146877061211846,-0.317345590400091 Q 81.7486282578875,-1.0075776763377675 104.1352639707355,3.897769893427565 Q 126.52189968358348,8.803117463192898 135.33769919483316,31.189753176040895 Z" fill="#6366f1" opacity="0.43271176268861455" filter="url(#g3215764627-blur)" />
  <path d="M 177.055616504966,42.82433127572016 Q 177.055616504966,42.82433127572016 169.7940644555756,58.56143795892251 Q 162.53251240618525,74.29854464212487 146.79540572298288,86.03147231296828 Q 131.05829903978054,97.7643999838117 115.21146849909263,86.14119617045384 Q 99.36463795840471,74.51799235709599 92.94962963896693,58.67116181640808 Q 86.53462131952914,42.82433127572017 94.67206478607075,28.699935882136085 Q 102.80950825261236,14.575540488552 116.93390364619646,9.082078808529253 Q 131.05829903978054,3.588617128506506 149.602263824962,4.662509416931872 Q 168.14622861014345,5.736401705357238 172.60092255755472,24.2803664905387 Z" fill="#2563eb" opacity="0.5296973593964335" filter="url(#g3215764627-blur)" />
  <line x1="0" y1="33.333333333333336" x2="200" y2="33.333333333333336" stroke="white" stroke-opacity="0.06" stroke-width="1" />
  <line x1="0" y1="66.66666666666667" x2="200" y2="66.66666666666667" stroke="white" stroke-opacity="0.06" stroke-width="1" />
  <line x1="0" y1="100" x2="200" y2="100" stroke="white" stroke-opacity="0.06" stroke-width="1" />
  <line x1="0" y1="133.33333333333334" x2="200" y2="133.33333333333334" stroke="white" stroke-opacity="0.06" stroke-width="1" />
  <line x1="0" y1="166.66666666666669" x2="200" y2="166.66666666666669" stroke="white" stroke-opacity="0.06" stroke-width="1" />
  <rect width="200" height="200" filter="url(#g3215764627-noise)" />
  
    <g transform="translate(116, 116)">
      <rect width="56" height="56" rx="14" fill="white" fill-opacity="0.14" />
      <text x="28" y="36" font-family="Arial, sans-serif" font-size="22" font-weight="700" fill="white" text-anchor="middle">EM</text>
    </g>
</svg>