<svg width="800" height="500" viewBox="0 0 800 500" xmlns="http://www.w3.org/2000/svg">
  <defs>
    <linearGradient id="g1504217140-bg" x1="0" y1="0" x2="800" y2="500" gradientUnits="userSpaceOnUse">
      <stop offset="0%" stop-color="#0f1115" />
      <stop offset="100%" stop-color="#181b22" />
    </linearGradient>
    <filter id="g1504217140-blur" x="-50%" y="-50%" width="200%" height="200%">
      <feGaussianBlur stdDeviation="22.5" />
    </filter>
    <filter id="g1504217140-noise">
      <feTurbulence type="fractalNoise" baseFrequency="0.9" numOctaves="2" stitchTiles="stitch" result="noise" />
      <feColorMatrix in="noise" type="matrix" values="0 0 0 0 1  0 0 0 0 1  0 0 0 0 1  0 0 0 0.02 0" />
    </filter>
  </defs>
  <rect width="800" height="500" fill="url(#g1504217140-bg)" />
  <path d="M 688.5951136126823,217.22350823045267 Q 688.5951136126823,217.22350823045267 656.3938101861611,294.22734048544413 Q 624.19250675964,371.23117274043557 547.1886745046485,397.95069801364485 Q 470.18484224965704,424.67022328685414 404.63343888367433,386.49826912463607 Q 339.0820355176917,348.326314962418 326.4321882814644,282.77491159643535 Q 313.7823410452371,217.2235082304527 317.10317546965473,142.34309205266032 Q 320.4240098940723,67.46267587486798 395.30442607186467,32.50504298554405 Q 470.184842249657,-2.452589903779881 542.5799398156441,34.99036159734926 Q 614.9750373816312,72.43331309847841 651.7850754971568,144.82841066446554 Z" fill="#06b6d4" opacity="0.40221536351165976" filter="url(#g1504217140-blur)" />
  <path d="M 555.6992401577445,407.4729938271605 Q 555.6992401577445,407.4729938271605 519.9230547926106,453.2420732596917 Q 484.14686942747664,499.01115269222294 438.37778999494543,542.7103962321545 Q 392.6087105624142,586.409639772086 331.56560794424007,557.9844194177974 Q 270.5225053260659,529.5591990635089 239.93115719500355,468.5160964453347 Q 209.33980906394117,407.4729938271605 238.16084253135287,344.6595765453357 Q 266.98187599876456,281.8461592635109 329.79529328058936,276.1497888023687 Q 392.6087105624142,270.4534183412264 446.04696998558006,285.52494666102757 Q 499.48522940874585,300.5964749808288 527.5922347832452,354.03473440399466 Z" fill="#2563eb" opacity="0.5121639231824417" filter="url(#g1504217140-blur)" />
  <path d="M 600.9128443717765,195.87062757201645 Q 600.9128443717765,195.87062757201645 599.9759306238325,254.910883609412 Q 599.0390168758886,313.9511396468076 539.998760838493,325.4512254849168 Q 480.95850480109743,336.95131132302606 431.7748556881809,315.59461856043777 Q 382.5912065752644,294.2379257978495 357.011521836872,245.054276684933 Q 331.4318370984797,195.87062757201647 366.2984423518781,155.97389897410602 Q 401.1650476052765,116.07717037619557 441.0617762031869,74.08019773543516 Q 480.9585048010974,32.08322509467476 540.9690854076714,53.96634572677163 Q 600.9796660142454,75.8494663588685 600.946255193011,135.86004696544248 Z" fill="#8b5cf6" opacity="0.4369272976680384" filter="url(#g1504217140-blur)" />
  <line x1="0" y1="83.33333333333333" x2="800" y2="83.33333333333333" stroke="white" stroke-opacity="0.06" stroke-width="1" />
  <line x1="0" y1="166.66666666666666" x2="800" y2="166.66666666666666" stroke="white" stroke-opacity="0.06" stroke-width="1" />
  <line x1="0" y1="250" x2="800" y2="250" stroke="white" stroke-opacity="0.06" stroke-width="1" />
  <line x1="0" y1="333.3333333333333" x2="800" y2="333.3333333333333" stroke="white" stroke-opacity="0.06" stroke-width="1" />
  <line x1="0" y1="416.66666666666663" x2="800" y2="416.66666666666663" stroke="white" stroke-opacity="0.06" stroke-width="1" />
  <rect width="800" height="500" filter="url(#g1504217140-noise)" />
  
</svg>