<svg width="800" height="500" viewBox="0 0 800 500" xmlns="http://www.w3.org/2000/svg">
  <defs>
    <linearGradient id="g810991310-bg" x1="0" y1="0" x2="800" y2="500" gradientUnits="userSpaceOnUse">
      <stop offset="0%" stop-color="#0f1115" />
      <stop offset="100%" stop-color="#181b22" />
    </linearGradient>
    <filter id="g810991310-blur" x="-50%" y="-50%" width="200%" height="200%">
      <feGaussianBlur stdDeviation="22.5" />
    </filter>
    <filter id="g810991310-noise">
      <feTurbulence type="fractalNoise" baseFrequency="0.9" numOctaves="2" stitchTiles="stitch" result="noise" />
      <feColorMatrix in="noise" type="matrix" values="0 0 0 0 1  0 0 0 0 1  0 0 0 0 1  0 0 0 0.02 0" />
    </filter>
  </defs>
  <rect width="800" height="500" fill="url(#g810991310-bg)" />
  <path d="M 419.64881180843975,371.35373799725653 Q 419.64881180843975,371.35373799725653 380.0929055916654,434.8511471497226 Q 340.53699937489097,498.3485563021886 277.0395902224249,511.77826475749794 Q 213.54218106995884,525.2079732128072 146.36326599944198,515.4597706755487 Q 79.18435092892511,505.71156813829026 58.34801120549645,438.53265306777337 Q 37.51167148206778,371.35373799725653 79.929670416983,325.75648213822626 Q 122.34766935189822,280.15922627919593 167.94492521092852,261.331077953028 Q 213.54218106995881,242.50292962686007 262.7590991135527,257.71141576846446 Q 311.97601715714654,272.9199019100688 365.81241448279314,322.13681995366267 Z" fill="#2563eb" opacity="0.3777383401920439" filter="url(#g810991310-blur)" />
  <path d="M 350.6450715906581,330.43038408779154 Q 350.6450715906581,330.43038408779154 334.19984934579827,378.1147964036928 Q 317.75462710093836,425.79920871959405 270.0702147850371,431.4758531832348 Q 222.38580246913583,437.1524976468755 173.03180062093656,433.1454427155328 Q 123.6777987727373,429.13838778419006 108.77602664813638,379.7843859359908 Q 93.87425452353546,330.43038408779154 123.24802943631443,295.54838502777034 Q 152.6218043490934,260.66638596774914 187.5038034091146,245.7994094682774 Q 222.3858024691358,230.93243296880564 271.3740004466272,231.69321055080718 Q 320.36219842411856,232.45398813280875 335.5036350073883,281.44218611030016 Z" fill="#10b981" opacity="0.37040294924554185" filter="url(#g810991310-blur)" />
  <path d="M 345.7536811268942,315.43295610425236 Q 345.7536811268942,315.43295610425236 309.73735389809025,378.1602389862206 Q 273.7210266692863,440.8875218681888 210.99374378731804,477.0121171190648 Q 148.2664609053498,513.1367123699408 100.64934573593436,461.901949406512 Q 53.03223056651892,410.6671864430832 32.709574895199275,363.05007127366775 Q 12.38691922387963,315.43295610425236 19.481164573086325,254.58743061272398 Q 26.57540992229302,193.7419051211956 87.42093541382138,185.60835729301104 Q 148.26646090534976,177.47480946482648 209.02395825497177,185.69638543491737 Q 269.7814556045938,193.9179614050083 307.767568365744,254.6754587546303 Z" fill="#8b5cf6" opacity="0.35566015089163233" filter="url(#g810991310-blur)" />
  <line x1="0" y1="83.33333333333333" x2="800" y2="83.33333333333333" stroke="white" stroke-opacity="0.06" stroke-width="1" />
  <line x1="0" y1="166.66666666666666" x2="800" y2="166.66666666666666" stroke="white" stroke-opacity="0.06" stroke-width="1" />
  <line x1="0" y1="250" x2="800" y2="250" stroke="white" stroke-opacity="0.06" stroke-width="1" />
  <line x1="0" y1="333.3333333333333" x2="800" y2="333.3333333333333" stroke="white" stroke-opacity="0.06" stroke-width="1" />
  <line x1="0" y1="416.66666666666663" x2="800" y2="416.66666666666663" stroke="white" stroke-opacity="0.06" stroke-width="1" />
  <rect width="800" height="500" filter="url(#g810991310-noise)" />
  
</svg>