<svg width="800" height="500" viewBox="0 0 800 500" xmlns="http://www.w3.org/2000/svg">
  <defs>
    <linearGradient id="g2487327548-bg" x1="0" y1="0" x2="800" y2="500" gradientUnits="userSpaceOnUse">
      <stop offset="0%" stop-color="#0f1115" />
      <stop offset="100%" stop-color="#181b22" />
    </linearGradient>
    <filter id="g2487327548-blur" x="-50%" y="-50%" width="200%" height="200%">
      <feGaussianBlur stdDeviation="22.5" />
    </filter>
    <filter id="g2487327548-noise">
      <feTurbulence type="fractalNoise" baseFrequency="0.9" numOctaves="2" stitchTiles="stitch" result="noise" />
      <feColorMatrix in="noise" type="matrix" values="0 0 0 0 1  0 0 0 0 1  0 0 0 0 1  0 0 0 0.02 0" />
    </filter>
  </defs>
  <rect width="800" height="500" fill="url(#g2487327548-bg)" />
  <path d="M 480.0519749090798,139.93784293552812 Q 480.0519749090798,139.93784293552812 453.07542555516056,214.86742506907063 Q 426.0988762012414,289.79700720261314 351.1692940676989,311.5352435688621 Q 276.2397119341564,333.273479935111 210.34742506949272,302.49794829998325 Q 144.455138204829,271.72241666485553 97.4925248595711,205.83012980019186 Q 50.5299115143132,139.93784293552815 93.1153439049816,69.66837511627497 Q 135.70077629565,-0.6010927029782067 205.97024411490315,-13.301338014473274 Q 276.23971193415633,-26.00158332596834 329.5895237925736,3.618317946362616 Q 382.93933565099087,33.23821921869357 431.4956552800353,86.58803107711086 Z" fill="#6366f1" opacity="0.44364883401920435" filter="url(#g2487327548-blur)" />
  <path d="M 487.5573125598902,351.79226680384085 Q 487.5573125598902,351.79226680384085 468.1153835093666,418.03177181104013 Q 448.673454458843,484.2712768182394 382.4339494516437,526.1784062083894 Q 316.1944444444444,568.0855355985395 248.86575748504976,527.2675881605849 Q 181.5370705256551,486.44964072263014 151.74331545141501,419.1209537632355 Q 121.94956037717495,351.79226680384085 168.62690977303322,301.3471741660644 Q 215.30425916889152,250.902081528288 265.74935180666796,213.56724767459917 Q 316.19444444444434,176.23241382091035 379.8917698964677,200.31501486035228 Q 443.589095348491,224.3976158997942 465.5732039541906,288.0949413518175 Z" fill="#8b5cf6" opacity="0.5140912208504801" filter="url(#g2487327548-blur)" />
  <path d="M 456.0508573035388,239.57261659807955 Q 456.0508573035388,239.57261659807955 413.6307721120879,288.5848530625133 Q 371.21068692063704,337.597089526947 322.1984504562033,387.6552385224952 Q 273.18621399176953,437.7133875180435 200.9575389784888,410.8716770713422 Q 128.72886396520806,384.029966624641 102.74275455826094,311.8012916113603 Q 76.75664515131382,239.57261659807958 103.83009722399657,168.43128425053447 Q 130.90354929667933,97.28995190298937 202.0448816442244,85.37490436359293 Q 273.1862139917695,73.45985682419649 346.19648948073046,83.50596122217702 Q 419.20676496969145,93.55206562015755 437.6288111366151,166.56234110911856 Z" fill="#10b981" opacity="0.3771262002743484" filter="url(#g2487327548-blur)" />
  <line x1="0" y1="83.33333333333333" x2="800" y2="83.33333333333333" stroke="white" stroke-opacity="0.06" stroke-width="1" />
  <line x1="0" y1="166.66666666666666" x2="800" y2="166.66666666666666" stroke="white" stroke-opacity="0.06" stroke-width="1" />
  <line x1="0" y1="250" x2="800" y2="250" stroke="white" stroke-opacity="0.06" stroke-width="1" />
  <line x1="0" y1="333.3333333333333" x2="800" y2="333.3333333333333" stroke="white" stroke-opacity="0.06" stroke-width="1" />
  <line x1="0" y1="416.66666666666663" x2="800" y2="416.66666666666663" stroke="white" stroke-opacity="0.06" stroke-width="1" />
  <rect width="800" height="500" filter="url(#g2487327548-noise)" />
  
</svg>