<svg width="800" height="500" viewBox="0 0 800 500" xmlns="http://www.w3.org/2000/svg">
  <defs>
    <linearGradient id="g1086725217-bg" x1="0" y1="0" x2="800" y2="500" gradientUnits="userSpaceOnUse">
      <stop offset="0%" stop-color="#0f1115" />
      <stop offset="100%" stop-color="#181b22" />
    </linearGradient>
    <filter id="g1086725217-blur" x="-50%" y="-50%" width="200%" height="200%">
      <feGaussianBlur stdDeviation="22.5" />
    </filter>
    <filter id="g1086725217-noise">
      <feTurbulence type="fractalNoise" baseFrequency="0.9" numOctaves="2" stitchTiles="stitch" result="noise" />
      <feColorMatrix in="noise" type="matrix" values="0 0 0 0 1  0 0 0 0 1  0 0 0 0 1  0 0 0 0.02 0" />
    </filter>
  </defs>
  <rect width="800" height="500" fill="url(#g1086725217-bg)" />
  <path d="M 558.17081687675,360.11166838134426 Q 558.17081687675,360.11166838134426 539.2523949966851,436.4415493155118 Q 520.3339731166203,512.7714302496793 444.00409218245284,515.8419223273589 Q 367.6742112482853,518.9124144050386 299.05679883466735,508.1294538068094 Q 230.4393864210494,497.3464932085802 204.25409233751208,428.7290807949622 Q 178.0687982539748,360.11166838134426 196.6793623035519,283.9195259337661 Q 215.289926353129,207.727383486188 291.4820688007071,163.53181589126785 Q 367.67421124828525,119.33624829634775 433.95479860830784,173.44337097882342 Q 500.23538596833043,227.5504936612991 529.2031014225402,293.83108102132167 Z" fill="#10b981" opacity="0.35228137860082304" filter="url(#g1086725217-blur)" />
  <path d="M 479.2989273209538,97.73769718792866 Q 479.2989273209538,97.73769718792866 448.2417219200617,160.416718136128 Q 417.1845165191696,223.09573908432736 354.50549557097025,235.58499270999886 Q 291.8264746227709,248.07424633567038 244.57352382645078,220.15892255811963 Q 197.32057303013067,192.2435987805689 186.10023323833752,144.9906479842488 Q 174.87989344654437,97.73769718792867 181.26598139694286,45.650494550213914 Q 187.65206934734135,-6.436708087500847 239.7392719850561,-37.21355228482989 Q 291.82647462277083,-67.99039648215893 336.8847920237602,-30.184667048104515 Q 381.9431094247496,7.621062385949898 430.6210183728517,52.67937978693928 Z" fill="#06b6d4" opacity="0.4998842592592593" filter="url(#g1086725217-blur)" />
  <path d="M 640.2068496057477,289.06742969821676 Q 640.2068496057477,289.06742969821676 624.4122382338114,371.3128000564519 Q 608.617626861875,453.5581704146871 526.3722565036398,459.88905834339903 Q 444.1268861454047,466.2199462721109 366.2996066592434,455.47096747132514 Q 288.47232717308214,444.7219886705393 281.0645705348047,366.89470918437803 Q 273.6568138965273,289.06742969821676 295.9965838280356,226.17216350528642 Q 318.33635375954395,163.27689731235608 381.23161995247426,115.31223003879212 Q 444.1268861454046,67.34756276522816 502.96786501024576,119.3665173668813 Q 561.808843875087,171.38547196853443 601.0078467404173,230.2264508333756 Z" fill="#2563eb" opacity="0.41785751028806584" filter="url(#g1086725217-blur)" />
  <line x1="0" y1="83.33333333333333" x2="800" y2="83.33333333333333" stroke="white" stroke-opacity="0.06" stroke-width="1" />
  <line x1="0" y1="166.66666666666666" x2="800" y2="166.66666666666666" stroke="white" stroke-opacity="0.06" stroke-width="1" />
  <line x1="0" y1="250" x2="800" y2="250" stroke="white" stroke-opacity="0.06" stroke-width="1" />
  <line x1="0" y1="333.3333333333333" x2="800" y2="333.3333333333333" stroke="white" stroke-opacity="0.06" stroke-width="1" />
  <line x1="0" y1="416.66666666666663" x2="800" y2="416.66666666666663" stroke="white" stroke-opacity="0.06" stroke-width="1" />
  <rect width="800" height="500" filter="url(#g1086725217-noise)" />
  
</svg>